<svg width="525" height="86" viewBox="0 0 525 86" fill="none" xmlns="http://www.w3.org/2000/svg">
<g clip-path="url(#clip0_17_71)">
<path d="M130 45.0001C139.5 41.0001 137.5 1 105 4.00004V24C113.886 24.5645 114.99 27.0721 113.5 33.5C111.5 43.5 120.5 49.0001 130 45.0001Z" fill="#12CCFB"/>
<rect x="2" y="4" width="20" height="55" rx="10" fill="#12CCFB"/>
<rect x="40.208" y="30.6603" width="21.0194" height="19.2324" rx="9.61622" transform="rotate(37.2975 40.208 30.6603)" fill="#12CCFB"/>
<rect x="40.208" y="30.6603" width="21.0194" height="19.2324" rx="9.61622" transform="rotate(37.2975 40.208 30.6603)" stroke="#12CCFB"/>
<rect x="69" y="24" width="20" height="48" rx="10" transform="rotate(-90 69 24)" fill="#12CCFB"/>
<rect x="165" y="58" width="10" height="19" rx="5" transform="rotate(-90 165 58)" fill="#44F7FE"/>
<rect x="312" y="58" width="10" height="19" rx="5" transform="rotate(-90 312 58)" fill="#47FAFF"/>
<rect x="140" y="24" width="23" height="57" rx="11.5" fill="#47FAFF"/>
<path d="M186 32C186 25.3726 191.373 20 198 20H199C205.627 20 211 25.3726 211 32V70C211 76.6274 205.627 82 199 82H198C191.373 82 186 76.6274 186 70V32Z" fill="url(#paint0_linear_17_71)"/>
<rect x="284.85" y="20" width="25" height="61" rx="12" fill="url(#paint1_linear_17_71)"/>
<rect x="333.4" y="22" width="23.6" height="59" rx="11.8" fill="#47FAFF"/>
<rect x="478" y="28.7245" width="20" height="39.472" rx="10" transform="rotate(-22.72 478 28.7245)" fill="url(#paint2_linear_17_71)"/>
<rect x="365" y="4" width="20" height="77" rx="10" fill="url(#paint3_linear_17_71)"/>
<rect x="417" y="4" width="20" height="77" rx="10" fill="url(#paint4_linear_17_71)"/>
<rect x="470.381" y="0.286041" width="20" height="81.2488" rx="10" transform="rotate(22.9302 470.381 0.286041)" fill="url(#paint5_linear_17_71)"/>
<rect x="235" y="15" width="27" height="44" rx="12" fill="url(#paint6_linear_17_71)"/>
<rect x="67" y="4" width="20" height="77" rx="10" fill="#12CCFB"/>
<rect x="2" y="24" width="20" height="42" rx="10" transform="rotate(-90 2 24)" fill="#12CCFB"/>
<circle cx="12.5" cy="70.5" r="10.5" fill="#12CCFB"/>
<circle cx="248.5" cy="72.5" r="10.5" fill="#0096F4"/>
<circle cx="507.5" cy="72.5" r="10.5" fill="#0AA5F6"/>
<path d="M209 34.5C209 30.4947 208.108 26.5286 206.374 22.8282C204.64 19.1277 202.099 15.7654 198.895 12.9332C195.692 10.1011 191.888 7.85444 187.703 6.32167C183.517 4.78891 179.031 4 174.5 4C169.969 4 165.483 4.78891 161.297 6.32167C157.112 7.85444 153.308 10.1011 150.105 12.9332C146.901 15.7654 144.36 19.1277 142.626 22.8282C140.892 26.5286 140 30.4947 140 34.5L163.025 34.5C163.025 33.1678 163.322 31.8486 163.898 30.6178C164.475 29.3869 165.32 28.2686 166.386 27.3266C167.451 26.3845 168.716 25.6373 170.109 25.1274C171.501 24.6176 172.993 24.3552 174.5 24.3552C176.007 24.3552 177.499 24.6176 178.891 25.1274C180.284 25.6373 181.549 26.3845 182.614 27.3266C183.68 28.2686 184.525 29.3869 185.102 30.6178C185.678 31.8486 185.975 33.1678 185.975 34.5H209Z" fill="#47FAFF"/>
<path d="M259 34.5C259 30.4947 258.056 26.5286 256.222 22.8282C254.387 19.1277 251.699 15.7654 248.309 12.9332C244.92 10.1011 240.896 7.85444 236.468 6.32167C232.04 4.78891 227.293 4 222.5 4C217.707 4 212.96 4.78891 208.532 6.32167C204.104 7.85444 200.08 10.1011 196.691 12.9332C193.301 15.7654 190.613 19.1277 188.778 22.8282C186.944 26.5286 186 30.4947 186 34.5L210.36 34.5C210.36 33.1678 210.674 31.8486 211.284 30.6178C211.894 29.3869 212.788 28.2686 213.915 27.3266C215.043 26.3845 216.381 25.6373 217.854 25.1274C219.327 24.6176 220.906 24.3552 222.5 24.3552C224.094 24.3552 225.673 24.6176 227.146 25.1274C228.619 25.6373 229.957 26.3845 231.085 27.3266C232.212 28.2686 233.106 29.3869 233.716 30.6178C234.326 31.8486 234.64 33.1678 234.64 34.5H259Z" fill="#0096F4"/>
<path d="M357 34.5C357 30.4947 356.082 26.5286 354.298 22.8282C352.514 19.1277 349.899 15.7654 346.602 12.9332C343.306 10.1011 339.392 7.85444 335.085 6.32167C330.778 4.78891 326.162 4 321.5 4C316.838 4 312.222 4.78891 307.915 6.32167C303.608 7.85444 299.694 10.1011 296.398 12.9332C293.101 15.7654 290.486 19.1277 288.702 22.8282C286.918 26.5286 286 30.4947 286 34.5L309.692 34.5C309.692 33.1678 309.998 31.8486 310.591 30.6178C311.184 29.3869 312.054 28.2686 313.151 27.3266C314.247 26.3845 315.549 25.6373 316.981 25.1274C318.414 24.6176 319.949 24.3552 321.5 24.3552C323.051 24.3552 324.586 24.6176 326.019 25.1274C327.451 25.6373 328.753 26.3845 329.849 27.3266C330.946 28.2686 331.816 29.3869 332.409 30.6178C333.002 31.8486 333.308 33.1678 333.308 34.5H357Z" fill="#47FAFF"/>
<path d="M34.5 39.5C41.5 34.5 40.5 26 34 23.5L34.5 4.5C56.5 4.5 72 32 50.5 51L34.5 39.5Z" fill="#12CCFB" stroke="#12CCFB"/>
<path d="M309 34.5C309 30.4947 308.082 26.5286 306.298 22.8282C304.514 19.1277 301.899 15.7654 298.602 12.9332C295.306 10.1011 291.392 7.85444 287.085 6.32167C282.778 4.78891 278.162 4 273.5 4C268.838 4 264.222 4.78891 259.915 6.32167C255.608 7.85444 251.694 10.1011 248.398 12.9332C245.101 15.7654 242.486 19.1277 240.702 22.8282C238.918 26.5286 238 30.4947 238 34.5L261.692 34.5C261.692 33.1678 261.998 31.8486 262.591 30.6178C263.184 29.3869 264.054 28.2686 265.151 27.3266C266.247 26.3845 267.549 25.6373 268.981 25.1274C270.414 24.6176 271.949 24.3552 273.5 24.3552C275.051 24.3552 276.586 24.6176 278.019 25.1274C279.451 25.6373 280.753 26.3845 281.849 27.3266C282.946 28.2686 283.816 29.3869 284.409 30.6178C285.002 31.8486 285.308 33.1678 285.308 34.5H309Z" fill="#0196F3"/>
<rect x="361.122" y="11.8893" width="20" height="70.8984" rx="10" transform="rotate(-36.9199 361.122 11.8893)" fill="url(#paint7_linear_17_71)"/>
<rect x="90.5772" y="50.0036" width="20" height="43.272" rx="10" transform="rotate(-35 90.5772 50.0036)" fill="#12CCFB"/>
</g>
<defs>
<linearGradient id="paint0_linear_17_71" x1="198.5" y1="40" x2="198.5" y2="82" gradientUnits="userSpaceOnUse">
<stop stop-color="#0096F4"/>
<stop offset="1" stop-color="#32DBFA"/>
</linearGradient>
<linearGradient id="paint1_linear_17_71" x1="297" y1="35" x2="297.35" y2="81" gradientUnits="userSpaceOnUse">
<stop stop-color="#0096F4"/>
<stop offset="1" stop-color="#32DAFA"/>
</linearGradient>
<linearGradient id="paint2_linear_17_71" x1="488" y1="28.7245" x2="488" y2="68.1965" gradientUnits="userSpaceOnUse">
<stop stop-color="#20C0F8"/>
<stop offset="1" stop-color="#0EAFF7"/>
</linearGradient>
<linearGradient id="paint3_linear_17_71" x1="375" y1="4" x2="375" y2="81" gradientUnits="userSpaceOnUse">
<stop stop-color="#26CCFC"/>
<stop offset="1" stop-color="#05A1F8"/>
</linearGradient>
<linearGradient id="paint4_linear_17_71" x1="427" y1="4" x2="427" y2="81" gradientUnits="userSpaceOnUse">
<stop stop-color="#27CCFA"/>
<stop offset="1" stop-color="#07A0F5"/>
</linearGradient>
<linearGradient id="paint5_linear_17_71" x1="480.381" y1="0.286041" x2="480.381" y2="81.5348" gradientUnits="userSpaceOnUse">
<stop stop-color="#25CCFA"/>
<stop offset="1" stop-color="#08A1F7"/>
</linearGradient>
<linearGradient id="paint6_linear_17_71" x1="248.5" y1="15" x2="248.5" y2="59" gradientUnits="userSpaceOnUse">
<stop offset="0.473857" stop-color="#0196F3"/>
<stop offset="1" stop-color="#30D8FA"/>
</linearGradient>
<linearGradient id="paint7_linear_17_71" x1="371.122" y1="11.8893" x2="371.122" y2="82.7877" gradientUnits="userSpaceOnUse">
<stop stop-color="#27CCFA"/>
<stop offset="1" stop-color="#10ACF5"/>
</linearGradient>
<clipPath id="clip0_17_71">
<rect width="525" height="86" fill="white"/>
</clipPath>
</defs>
</svg>
